<svg width="64" height="64" viewBox="0 0 64 64" fill="none" xmlns="http://www.w3.org/2000/svg">
<path d="M32 59C46.9117 59 59 46.9117 59 32C59 17.0883 46.9117 5 32 5C17.0883 5 5 17.0883 5 32C5 46.9117 17.0883 59 32 59Z" fill="#8E4DFF"/>
<path d="M39.5 26.75C39.5 25.0931 38.1569 23.75 36.5 23.75H27.5C25.8431 23.75 24.5 25.0931 24.5 26.75V37.25C24.5 38.9069 25.8431 40.25 27.5 40.25H36.5C38.1569 40.25 39.5 38.9069 39.5 37.25V26.75Z" stroke="#FFC700" stroke-width="3" stroke-linecap="round" stroke-linejoin="round"/>
<path d="M32 34.25C33.6569 34.25 35 32.9069 35 31.25C35 29.5931 33.6569 28.25 32 28.25C30.3431 28.25 29 29.5931 29 31.25C29 32.9069 30.3431 34.25 32 34.25Z" stroke="white" stroke-width="3" stroke-linecap="round" stroke-linejoin="round"/>
</svg>
